<svg xmlns="http://www.w3.org/2000/svg" xmlns:xlink="http://www.w3.org/1999/xlink" width="400" zoomAndPan="magnify" viewBox="0 0 300 82.499998" height="110" preserveAspectRatio="xMidYMid meet" version="1.0"><defs><g/><clipPath id="a40f1ce521"><path d="M 4.988281 67.09375 L 291.253906 67.09375 L 291.253906 70.828125 L 4.988281 70.828125 Z M 4.988281 67.09375 " clip-rule="nonzero"/></clipPath><clipPath id="880fdca7aa"><path d="M 5.324219 67.09375 L 290.917969 67.09375 L 290.917969 70.820312 L 5.324219 70.820312 Z M 5.324219 67.09375 " clip-rule="nonzero"/></clipPath><clipPath id="4bcb25c293"><path d="M 0.902344 0 L 254 0 L 254 77 L 0.902344 77 Z M 0.902344 0 " clip-rule="nonzero"/></clipPath><clipPath id="5569fe26d1"><path d="M 244 16 L 284 16 L 284 56 L 244 56 Z M 244 16 " clip-rule="nonzero"/></clipPath><clipPath id="41d0825b41"><path d="M 263.660156 16.210938 L 283.699219 36.25 L 264.308594 55.640625 L 244.269531 35.597656 Z M 263.660156 16.210938 " clip-rule="nonzero"/></clipPath><clipPath id="d2fa83be0c"><path d="M 244 16 L 284 16 L 284 56 L 244 56 Z M 244 16 " clip-rule="nonzero"/></clipPath><clipPath id="48bf3c453b"><path d="M 263.660156 16.210938 L 283.6875 36.242188 L 264.183594 55.746094 L 244.152344 35.714844 Z M 263.660156 16.210938 " clip-rule="nonzero"/></clipPath><clipPath id="dab82acab3"><path d="M 263.664062 16.214844 L 283.695312 36.246094 L 264.3125 55.628906 L 244.28125 35.59375 Z M 263.664062 16.214844 " clip-rule="nonzero"/></clipPath><clipPath id="00b00ad51c"><path d="M 267 10 L 279 10 L 279 22 L 267 22 Z M 267 10 " clip-rule="nonzero"/></clipPath><clipPath id="dda509832a"><path d="M 267.570312 16.304688 L 273.101562 10.769531 L 278.449219 16.117188 L 272.917969 21.648438 Z M 267.570312 16.304688 " clip-rule="nonzero"/></clipPath><clipPath id="85fb11bab5"><path d="M 276 20 L 288 20 L 288 32 L 276 32 Z M 276 20 " clip-rule="nonzero"/></clipPath><clipPath id="369c28f4fa"><path d="M 276.515625 25.992188 L 282.050781 20.460938 L 287.394531 25.808594 L 281.863281 31.339844 Z M 276.515625 25.992188 " clip-rule="nonzero"/></clipPath><clipPath id="95b5dc5e7e"><path d="M 268 49 L 280 49 L 280 61 L 268 61 Z M 268 49 " clip-rule="nonzero"/></clipPath><clipPath id="59bd8bb44d"><path d="M 268.316406 55.066406 L 273.773438 49.609375 L 279.121094 54.957031 L 273.664062 60.414062 Z M 268.316406 55.066406 " clip-rule="nonzero"/></clipPath><clipPath id="2fa5c72cff"><path d="M 277 40 L 289 40 L 289 51 L 277 51 Z M 277 40 " clip-rule="nonzero"/></clipPath><clipPath id="4ca6110e14"><path d="M 277.742188 45.632812 L 283.125 40.25 L 288.46875 45.597656 L 283.085938 50.980469 Z M 277.742188 45.632812 " clip-rule="nonzero"/></clipPath></defs><g clip-path="url(#a40f1ce521)"><path fill="#e25959" d="M 4.988281 67.09375 L 291.261719 67.09375 L 291.261719 70.828125 L 4.988281 70.828125 Z M 4.988281 67.09375 " fill-opacity="1" fill-rule="nonzero"/></g><g clip-path="url(#880fdca7aa)"><path stroke-linecap="butt" transform="matrix(0.745482, 0, 0, 0.745482, 5.324838, 67.093369)" fill="none" stroke-linejoin="miter" d="M -0.000831007 0.000511419 L 383.098667 0.000511419 L 383.098667 4.999375 L -0.000831007 4.999375 Z M -0.000831007 0.000511419 " stroke="#000000" stroke-width="2" stroke-opacity="1" stroke-miterlimit="4"/></g><g clip-path="url(#4bcb25c293)"><path stroke-linecap="butt" transform="matrix(0.745482, 0, 0, 0.745482, 4.988051, -14.29729)" fill="none" stroke-linejoin="miter" d="M 49.313002 52.93926 L 43.17184 82.14122 C 42.920325 83.330677 42.794567 84.766409 42.794567 86.453657 C 42.794567 91.326763 43.564832 95.843556 45.094883 99.998797 L 35.998417 99.998797 C 35.500627 98.997976 34.966157 97.310728 34.405488 94.937054 C 32.938316 96.71862 30.748038 98.164832 27.845134 99.27569 C 24.93699 100.381309 21.861169 100.936739 18.607191 100.936739 C 13.671206 100.936739 9.81988 99.474807 7.053213 96.556183 C 4.286547 93.632319 2.908453 89.435159 2.908453 83.969944 C 2.908453 74.779161 5.617481 66.631117 11.040777 59.525814 C 16.458833 52.41527 23.438379 48.857379 31.968935 48.857379 C 40.03314 48.857379 45.812749 50.219753 49.313002 52.93926 Z M 39.467231 58.14248 C 38.623607 56.795826 35.783582 56.125119 30.936675 56.125119 C 26.000689 56.125119 21.656813 58.750309 17.905045 64.000688 C 14.158517 69.251067 12.282633 75.811421 12.282633 83.68699 C 12.282633 90.341662 15.248416 93.674238 21.185222 93.674238 C 24.282002 93.674238 27.184907 92.070829 29.904414 88.86925 C 32.623922 85.662432 34.515526 81.564831 35.579226 76.560727 Z M 95.570833 51.38825 L 93.930745 59.033263 C 91.677588 57.251698 88.664646 56.360915 84.881439 56.360915 C 79.133269 56.360915 74.485478 58.635031 70.938066 63.178024 C 67.390655 67.726256 65.614329 73.311989 65.614329 79.935222 C 65.614329 84.001384 66.767107 87.239642 69.062182 89.665715 C 71.357258 92.086549 73.977208 93.296965 76.911552 93.296965 C 81.444065 93.296965 85.787941 91.908392 89.943181 89.126005 L 88.95808 98.217231 C 84.865719 100.030236 80.380365 100.936739 75.507259 100.936739 C 69.318937 100.936739 64.571589 99.165653 61.254732 95.618241 C 57.943116 92.070829 56.287308 87.360159 56.287308 81.486232 C 56.287308 71.923416 58.912497 64.095006 64.162877 58.001003 C 69.413256 51.907 76.099367 48.857379 84.226451 48.857379 C 89.036679 48.857379 92.819886 49.701003 95.570833 51.38825 Z M 141.357074 51.38825 L 139.716985 59.033263 C 137.469069 57.251698 134.450887 56.360915 130.667679 56.360915 C 124.91951 56.360915 120.271719 58.635031 116.724307 63.178024 C 113.176895 67.726256 111.405809 73.311989 111.405809 79.935222 C 111.405809 84.001384 112.553347 87.239642 114.848423 89.665715 C 117.148739 92.086549 119.763449 93.296965 122.703032 93.296965 C 127.230305 93.296965 131.574182 91.908392 135.734662 89.126005 L 134.749561 98.217231 C 130.657199 100.030236 126.171846 100.936739 121.293499 100.936739 C 115.105178 100.936739 110.357829 99.165653 107.046213 95.618241 C 103.734596 92.070829 102.078788 87.360159 102.078788 81.486232 C 102.078788 71.923416 104.703978 64.095006 109.949117 58.001003 C 115.199496 51.907 121.890848 48.857379 130.012692 48.857379 C 134.828159 48.857379 138.606127 49.701003 141.357074 51.38825 Z M 147.068564 81.533391 C 147.068564 72.562683 149.693754 64.875751 154.944133 58.467354 C 160.194512 52.064197 166.864904 48.857379 174.960548 48.857379 C 181.054551 48.857379 185.707582 50.507947 188.92488 53.803844 C 192.147418 57.09974 193.756068 61.778971 193.756068 67.841534 C 193.756068 72.657002 192.791926 77.655866 190.874123 82.843366 C 188.95108 88.030866 185.81238 92.343304 181.452784 95.780678 C 177.093188 99.218052 171.863768 100.936739 165.769765 100.936739 C 159.738641 100.936739 155.11705 99.244251 151.894512 95.854036 C 148.677213 92.458581 147.068564 87.685033 147.068564 81.533391 Z M 156.442744 80.967482 C 156.442744 89.435159 159.990156 93.674238 167.08498 93.674238 C 172.366798 93.674238 176.558718 91.111927 179.671218 85.982066 C 182.778478 80.857444 184.334728 74.936358 184.334728 68.218807 C 184.334728 60.154602 180.787317 56.125119 173.692493 56.125119 C 170.097922 56.125119 166.933023 57.403655 164.203035 59.971205 C 161.467808 62.533516 159.492366 65.813693 158.271469 69.811736 C 157.050572 73.815019 156.442744 77.530108 156.442744 80.967482 Z M 235.932017 58.608831 C 234.061373 57.11022 231.871095 56.360915 229.371663 56.360915 C 226.217244 56.360915 223.199062 57.822847 220.322357 60.741471 C 217.450892 63.665334 215.653607 67.155107 214.935741 71.221269 L 209.826839 99.998797 L 200.91901 99.998797 L 209.77968 49.795321 L 218.682269 49.795321 L 217.277976 57.812367 C 221.590413 51.844121 226.95083 48.857379 233.353987 48.857379 C 234.449126 48.857379 236.152093 49.077455 238.462889 49.517606 Z M 259.270529 30.109019 C 260.989216 30.109019 262.456388 30.711607 263.677285 31.911544 C 264.892941 33.116721 265.506009 34.594373 265.506009 36.344499 C 265.506009 38.063186 264.892941 39.525118 263.677285 40.725055 C 262.456388 41.930232 260.989216 42.53282 259.270529 42.53282 C 257.551842 42.53282 256.079431 41.930232 254.863774 40.725055 C 253.642877 39.525118 253.035049 38.063186 253.035049 36.344499 C 253.035049 34.594373 253.642877 33.116721 254.863774 31.911544 C 256.079431 30.711607 257.551842 30.109019 259.270529 30.109019 Z M 244.876526 99.998797 L 252.47438 57.298857 L 245.814468 57.298857 L 247.454556 49.936798 L 262.786502 49.936798 L 253.925832 99.998797 Z M 312.979498 51.38825 L 311.339409 59.033263 C 309.086252 57.251698 306.07331 56.360915 302.290103 56.360915 C 296.541933 56.360915 291.894143 58.635031 288.346731 63.178024 C 284.799319 67.726256 283.028233 73.311989 283.028233 79.935222 C 283.028233 84.001384 284.175771 87.239642 286.470847 89.665715 C 288.771163 92.086549 291.385872 93.296965 294.325456 93.296965 C 298.852729 93.296965 303.196606 91.908392 307.357086 89.126005 L 306.371985 98.217231 C 302.274383 100.030236 297.794269 100.936739 292.915923 100.936739 C 286.727602 100.936739 281.980253 99.165653 278.668637 95.618241 C 275.35702 92.070829 273.695972 87.360159 273.695972 81.486232 C 273.695972 71.923416 276.321162 64.095006 281.571541 58.001003 C 286.82192 51.907 293.513272 48.857379 301.635116 48.857379 C 306.450583 48.857379 310.22855 49.701003 312.979498 51.38825 Z M 312.979498 51.38825 " stroke="#000000" stroke-width="3.6" stroke-opacity="1" stroke-miterlimit="4"/></g><g fill="#2fa5f4" fill-opacity="1"><g transform="translate(4.988051, 60.250897)"><g><path d="M 36.765625 -35.078125 L 32.1875 -13.3125 C 32 -12.425781 31.90625 -11.351562 31.90625 -10.09375 C 31.90625 -6.457031 32.472656 -3.09375 33.609375 0 L 26.84375 0 C 26.46875 -0.75 26.066406 -2.007812 25.640625 -3.78125 C 24.546875 -2.445312 22.914062 -1.363281 20.75 -0.53125 C 18.582031 0.289062 16.289062 0.703125 13.875 0.703125 C 10.1875 0.703125 7.3125 -0.382812 5.25 -2.5625 C 3.195312 -4.738281 2.171875 -7.867188 2.171875 -11.953125 C 2.171875 -18.796875 4.191406 -24.867188 8.234375 -30.171875 C 12.273438 -35.472656 17.472656 -38.125 23.828125 -38.125 C 29.835938 -38.125 34.148438 -37.109375 36.765625 -35.078125 Z M 29.421875 -31.203125 C 28.796875 -32.203125 26.675781 -32.703125 23.0625 -32.703125 C 19.382812 -32.703125 16.144531 -30.742188 13.34375 -26.828125 C 10.550781 -22.921875 9.15625 -18.03125 9.15625 -12.15625 C 9.15625 -7.195312 11.367188 -4.71875 15.796875 -4.71875 C 18.097656 -4.71875 20.257812 -5.910156 22.28125 -8.296875 C 24.3125 -10.679688 25.722656 -13.738281 26.515625 -17.46875 Z M 29.421875 -31.203125 "/></g></g></g><g fill="#2fa5f4" fill-opacity="1"><g transform="translate(43.804919, 60.250897)"><g><path d="M 32.421875 -36.234375 L 31.203125 -30.546875 C 29.523438 -31.867188 27.273438 -32.53125 24.453125 -32.53125 C 20.171875 -32.53125 16.707031 -30.832031 14.0625 -27.4375 C 11.414062 -24.050781 10.09375 -19.890625 10.09375 -14.953125 C 10.09375 -11.921875 10.945312 -9.503906 12.65625 -7.703125 C 14.375 -5.898438 16.328125 -5 18.515625 -5 C 21.898438 -5 25.140625 -6.035156 28.234375 -8.109375 L 27.5 -1.328125 C 24.445312 0.0234375 21.101562 0.703125 17.46875 0.703125 C 12.851562 0.703125 9.3125 -0.617188 6.84375 -3.265625 C 4.375 -5.910156 3.140625 -9.421875 3.140625 -13.796875 C 3.140625 -20.929688 5.097656 -26.769531 9.015625 -31.3125 C 12.929688 -35.851562 17.914062 -38.125 23.96875 -38.125 C 27.5625 -38.125 30.378906 -37.492188 32.421875 -36.234375 Z M 32.421875 -36.234375 "/></g></g></g><g fill="#2fa5f4" fill-opacity="1"><g transform="translate(77.93923, 60.250897)"><g><path d="M 32.421875 -36.234375 L 31.203125 -30.546875 C 29.523438 -31.867188 27.273438 -32.53125 24.453125 -32.53125 C 20.171875 -32.53125 16.707031 -30.832031 14.0625 -27.4375 C 11.414062 -24.050781 10.09375 -19.890625 10.09375 -14.953125 C 10.09375 -11.921875 10.945312 -9.503906 12.65625 -7.703125 C 14.375 -5.898438 16.328125 -5 18.515625 -5 C 21.898438 -5 25.140625 -6.035156 28.234375 -8.109375 L 27.5 -1.328125 C 24.445312 0.0234375 21.101562 0.703125 17.46875 0.703125 C 12.851562 0.703125 9.3125 -0.617188 6.84375 -3.265625 C 4.375 -5.910156 3.140625 -9.421875 3.140625 -13.796875 C 3.140625 -20.929688 5.097656 -26.769531 9.015625 -31.3125 C 12.929688 -35.851562 17.914062 -38.125 23.96875 -38.125 C 27.5625 -38.125 30.378906 -37.492188 32.421875 -36.234375 Z M 32.421875 -36.234375 "/></g></g></g><g fill="#2fa5f4" fill-opacity="1"><g transform="translate(112.073537, 60.250897)"><g><path d="M 2.546875 -13.765625 C 2.546875 -20.453125 4.503906 -26.179688 8.421875 -30.953125 C 12.335938 -35.734375 17.3125 -38.125 23.34375 -38.125 C 27.882812 -38.125 31.351562 -36.894531 33.75 -34.4375 C 36.15625 -31.976562 37.359375 -28.488281 37.359375 -23.96875 C 37.359375 -20.382812 36.640625 -16.65625 35.203125 -12.78125 C 33.773438 -8.914062 31.4375 -5.703125 28.1875 -3.140625 C 24.9375 -0.578125 21.039062 0.703125 16.5 0.703125 C 12 0.703125 8.546875 -0.5625 6.140625 -3.09375 C 3.742188 -5.625 2.546875 -9.179688 2.546875 -13.765625 Z M 9.546875 -14.1875 C 9.546875 -7.875 12.1875 -4.71875 17.46875 -4.71875 C 21.40625 -4.71875 24.53125 -6.625 26.84375 -10.4375 C 29.164062 -14.257812 30.328125 -18.675781 30.328125 -23.6875 C 30.328125 -29.695312 27.679688 -32.703125 22.390625 -32.703125 C 19.710938 -32.703125 17.351562 -31.742188 15.3125 -29.828125 C 13.28125 -27.921875 11.8125 -25.476562 10.90625 -22.5 C 10 -19.519531 9.546875 -16.75 9.546875 -14.1875 Z M 9.546875 -14.1875 "/></g></g></g><g fill="#2fa5f4" fill-opacity="1"><g transform="translate(151.694132, 60.250897)"><g><path d="M 29.171875 -30.859375 C 27.773438 -31.972656 26.144531 -32.53125 24.28125 -32.53125 C 21.925781 -32.53125 19.675781 -31.441406 17.53125 -29.265625 C 15.394531 -27.085938 14.054688 -24.484375 13.515625 -21.453125 L 9.71875 0 L 3.078125 0 L 9.671875 -37.421875 L 16.3125 -37.421875 L 15.265625 -31.453125 C 18.484375 -35.898438 22.476562 -38.125 27.25 -38.125 C 28.070312 -38.125 29.34375 -37.960938 31.0625 -37.640625 Z M 29.171875 -30.859375 "/></g></g></g><g fill="#2fa5f4" fill-opacity="1"><g transform="translate(182.718388, 60.250897)"><g><path d="M 15.546875 -52.09375 C 16.828125 -52.09375 17.921875 -51.644531 18.828125 -50.75 C 19.742188 -49.851562 20.203125 -48.753906 20.203125 -47.453125 C 20.203125 -46.171875 19.742188 -45.082031 18.828125 -44.1875 C 17.921875 -43.289062 16.828125 -42.84375 15.546875 -42.84375 C 14.265625 -42.84375 13.171875 -43.289062 12.265625 -44.1875 C 11.359375 -45.082031 10.90625 -46.171875 10.90625 -47.453125 C 10.90625 -48.753906 11.359375 -49.851562 12.265625 -50.75 C 13.171875 -51.644531 14.265625 -52.09375 15.546875 -52.09375 Z M 4.828125 0 L 10.484375 -31.828125 L 5.515625 -31.828125 L 6.75 -37.3125 L 18.171875 -37.3125 L 11.5625 0 Z M 4.828125 0 "/></g></g></g><g fill="#2fa5f4" fill-opacity="1"><g transform="translate(205.880129, 60.250897)"><g><path d="M 32.421875 -36.234375 L 31.203125 -30.546875 C 29.523438 -31.867188 27.273438 -32.53125 24.453125 -32.53125 C 20.171875 -32.53125 16.707031 -30.832031 14.0625 -27.4375 C 11.414062 -24.050781 10.09375 -19.890625 10.09375 -14.953125 C 10.09375 -11.921875 10.945312 -9.503906 12.65625 -7.703125 C 14.375 -5.898438 16.328125 -5 18.515625 -5 C 21.898438 -5 25.140625 -6.035156 28.234375 -8.109375 L 27.5 -1.328125 C 24.445312 0.0234375 21.101562 0.703125 17.46875 0.703125 C 12.851562 0.703125 9.3125 -0.617188 6.84375 -3.265625 C 4.375 -5.910156 3.140625 -9.421875 3.140625 -13.796875 C 3.140625 -20.929688 5.097656 -26.769531 9.015625 -31.3125 C 12.929688 -35.851562 17.914062 -38.125 23.96875 -38.125 C 27.5625 -38.125 30.378906 -37.492188 32.421875 -36.234375 Z M 32.421875 -36.234375 "/></g></g></g><g clip-path="url(#5569fe26d1)"><g clip-path="url(#41d0825b41)"><path fill="#efefef" d="M 263.660156 16.210938 L 283.726562 36.28125 L 264.339844 55.667969 L 244.269531 35.597656 Z M 263.660156 16.210938 " fill-opacity="1" fill-rule="nonzero"/></g></g><g clip-path="url(#d2fa83be0c)"><g clip-path="url(#48bf3c453b)"><g clip-path="url(#dab82acab3)"><path stroke-linecap="butt" transform="matrix(0.527135, 0.527135, -0.527135, 0.527135, 263.662217, 16.21515)" fill="none" stroke-linejoin="miter" d="M 0.00145976 -0.0020406 L 38.001666 -0.0020406 L 38.001666 36.76805 L -0.00224541 36.764345 Z M 0.00145976 -0.0020406 " stroke="#000000" stroke-width="8" stroke-opacity="1" stroke-miterlimit="4"/></g></g></g><g clip-path="url(#00b00ad51c)"><g clip-path="url(#dda509832a)"><path fill="#d69e00" d="M 267.570312 16.304688 L 273.105469 10.769531 L 278.453125 16.113281 L 272.917969 21.648438 Z M 267.570312 16.304688 " fill-opacity="1" fill-rule="nonzero"/></g></g><g clip-path="url(#85fb11bab5)"><g clip-path="url(#369c28f4fa)"><path fill="#d69e00" d="M 276.515625 25.992188 L 282.050781 20.460938 L 287.398438 25.804688 L 281.863281 31.339844 Z M 276.515625 25.992188 " fill-opacity="1" fill-rule="nonzero"/></g></g><g clip-path="url(#95b5dc5e7e)"><g clip-path="url(#59bd8bb44d)"><path fill="#d69e00" d="M 268.316406 55.066406 L 273.765625 49.617188 L 279.113281 54.964844 L 273.664062 60.414062 Z M 268.316406 55.066406 " fill-opacity="1" fill-rule="nonzero"/></g></g><g clip-path="url(#2fa5c72cff)"><g clip-path="url(#4ca6110e14)"><path fill="#d69e00" d="M 277.742188 45.632812 L 283.128906 40.246094 L 288.472656 45.59375 L 283.085938 50.980469 Z M 277.742188 45.632812 " fill-opacity="1" fill-rule="nonzero"/></g></g></svg>