<svg xmlns="http://www.w3.org/2000/svg" xmlns:xlink="http://www.w3.org/1999/xlink" width="420" zoomAndPan="magnify" viewBox="0 0 315 82.499998" height="110" preserveAspectRatio="xMidYMid meet" version="1.0"><defs><g/><clipPath id="2636d8ffac"><path d="M 1.695312 67.488281 L 299.597656 67.488281 L 299.597656 72.128906 L 1.695312 72.128906 Z M 1.695312 67.488281 " clip-rule="nonzero"/></clipPath><clipPath id="1b0b3f79f2"><path d="M 1.808594 67.488281 L 299.484375 67.488281 L 299.484375 71.964844 L 1.808594 71.964844 Z M 1.808594 67.488281 " clip-rule="nonzero"/></clipPath><clipPath id="c151eba52c"><path d="M 0.949219 0 L 259 0 L 259 77 L 0.949219 77 Z M 0.949219 0 " clip-rule="nonzero"/></clipPath><clipPath id="a096ec2940"><path d="M 251 14 L 294 14 L 294 58 L 251 58 Z M 251 14 " clip-rule="nonzero"/></clipPath><clipPath id="d80f90346e"><path d="M 271.738281 14.945312 L 293.144531 36.351562 L 272.433594 57.0625 L 251.027344 35.65625 Z M 271.738281 14.945312 " clip-rule="nonzero"/></clipPath><clipPath id="5900e74051"><path d="M 251 14 L 294 14 L 294 58 L 251 58 Z M 251 14 " clip-rule="nonzero"/></clipPath><clipPath id="9c0d85b885"><path d="M 271.738281 14.945312 L 293.136719 36.339844 L 272.300781 57.175781 L 250.902344 35.777344 Z M 271.738281 14.945312 " clip-rule="nonzero"/></clipPath><clipPath id="258bcfe005"><path d="M 271.742188 14.949219 L 293.140625 36.347656 L 272.4375 57.046875 L 251.039062 35.652344 Z M 271.742188 14.949219 " clip-rule="nonzero"/></clipPath><clipPath id="053e7fdbfc"><path d="M 275 9 L 288 9 L 288 21 L 275 21 Z M 275 9 " clip-rule="nonzero"/></clipPath><clipPath id="69eddf00ba"><path d="M 275.917969 15.042969 L 281.828125 9.132812 L 287.539062 14.84375 L 281.628906 20.753906 Z M 275.917969 15.042969 " clip-rule="nonzero"/></clipPath><clipPath id="0bb4f61b83"><path d="M 285 19 L 298 19 L 298 32 L 285 32 Z M 285 19 " clip-rule="nonzero"/></clipPath><clipPath id="f7cb3cd33d"><path d="M 285.472656 25.394531 L 291.382812 19.484375 L 297.09375 25.195312 L 291.183594 31.105469 Z M 285.472656 25.394531 " clip-rule="nonzero"/></clipPath><clipPath id="91b5aacd98"><path d="M 276 50 L 289 50 L 289 63 L 276 63 Z M 276 50 " clip-rule="nonzero"/></clipPath><clipPath id="cf84f15c97"><path d="M 276.714844 56.453125 L 282.546875 50.621094 L 288.253906 56.332031 L 282.425781 62.164062 Z M 276.714844 56.453125 " clip-rule="nonzero"/></clipPath><clipPath id="7c1abd7937"><path d="M 286 40 L 299 40 L 299 53 L 286 53 Z M 286 40 " clip-rule="nonzero"/></clipPath><clipPath id="fc2171e5e4"><path d="M 286.78125 46.375 L 292.53125 40.625 L 298.242188 46.335938 L 292.492188 52.085938 Z M 286.78125 46.375 " clip-rule="nonzero"/></clipPath><clipPath id="afa84c917b"><path d="M 304.953125 67.785156 L 309 67.785156 L 309 72.257812 L 304.953125 72.257812 Z M 304.953125 67.785156 " clip-rule="nonzero"/></clipPath><clipPath id="07f9bf5ecc"><path d="M 308 67.785156 L 313.152344 67.785156 L 313.152344 72.257812 L 308 72.257812 Z M 308 67.785156 " clip-rule="nonzero"/></clipPath></defs><g clip-path="url(#2636d8ffac)"><path fill="#e25959" d="M 1.695312 67.488281 L 299.601562 67.488281 L 299.601562 72.128906 L 1.695312 72.128906 Z M 1.695312 67.488281 " fill-opacity="1" fill-rule="nonzero"/></g><g clip-path="url(#1b0b3f79f2)"><path stroke-linecap="butt" transform="matrix(0.745482, 0, 0, 0.745482, 1.807672, 67.490018)" fill="none" stroke-linejoin="miter" d="M 0.00123683 -0.00232915 L 399.307768 -0.00232915 L 399.307768 6.217431 L 0.00123683 6.217431 Z M 0.00123683 -0.00232915 " stroke="#000000" stroke-width="2" stroke-opacity="1" stroke-miterlimit="4"/></g><g clip-path="url(#c151eba52c)"><path stroke-linecap="butt" transform="matrix(0.745482, 0, 0, 0.745482, 2.592452, -14.29729)" fill="none" stroke-linejoin="miter" d="M 49.314433 52.93926 L 43.173271 82.14122 C 42.921756 83.330677 42.795999 84.766409 42.795999 86.453657 C 42.795999 91.326763 43.561024 95.843556 45.096314 99.998797 L 35.999849 99.998797 C 35.502059 98.997976 34.967589 97.310728 34.40692 94.937054 C 32.939748 96.71862 30.74947 98.164832 27.841326 99.27569 C 24.938422 100.381309 21.857361 100.936739 18.608623 100.936739 C 13.672638 100.936739 9.821312 99.474807 7.054645 96.556183 C 4.287978 93.632319 2.904645 89.435159 2.904645 83.969944 C 2.904645 74.779161 5.618913 66.631117 11.036969 59.525814 C 16.460264 52.41527 23.43981 48.857379 31.970367 48.857379 C 40.029332 48.857379 45.814181 50.219753 49.314433 52.93926 Z M 39.468663 58.14248 C 38.625039 56.795826 35.779773 56.125119 30.938106 56.125119 C 26.002121 56.125119 21.658245 58.750309 17.906477 64.000688 C 14.154709 69.251067 12.278825 75.811421 12.278825 83.68699 C 12.278825 90.341662 15.249848 93.674238 21.186654 93.674238 C 24.283434 93.674238 27.186338 92.070829 29.905846 88.86925 C 32.625354 85.662432 34.516958 81.564831 35.580657 76.560727 Z M 97.296192 51.38825 L 95.656103 59.033263 C 93.408187 57.251698 90.390005 56.360915 86.612037 56.360915 C 80.858628 56.360915 76.210837 58.635031 72.663425 63.178024 C 69.116013 67.726256 67.344927 73.311989 67.344927 79.935222 C 67.344927 84.001384 68.492465 87.239642 70.787541 89.665715 C 73.087857 92.086549 75.702567 93.296965 78.64215 93.296965 C 83.174663 93.296965 87.51854 91.908392 91.67378 89.126005 L 90.688679 98.217231 C 86.596317 100.030236 82.110964 100.936739 77.232617 100.936739 C 71.049536 100.936739 66.296947 99.165653 62.985331 95.618241 C 59.673714 92.070829 58.017906 87.360159 58.017906 81.486232 C 58.017906 71.923416 60.643096 64.095006 65.893475 58.001003 C 71.143854 51.907 77.829966 48.857379 85.95181 48.857379 C 90.767277 48.857379 94.545245 49.701003 97.296192 51.38825 Z M 144.811599 51.38825 L 143.171511 59.033263 C 140.923594 57.251698 137.905412 56.360915 134.127444 56.360915 C 128.374035 56.360915 123.726244 58.635031 120.178832 63.178024 C 116.63666 67.726256 114.860335 73.311989 114.860335 79.935222 C 114.860335 84.001384 116.007872 87.239642 118.308188 89.665715 C 120.603264 92.086549 123.217974 93.296965 126.157558 93.296965 C 130.69007 93.296965 135.033947 91.908392 139.189187 89.126005 L 138.204086 98.217231 C 134.111725 100.030236 129.626371 100.936739 124.753265 100.936739 C 118.564943 100.936739 113.812355 99.165653 110.500738 95.618241 C 107.189122 92.070829 105.533314 87.360159 105.533314 81.486232 C 105.533314 71.923416 108.158503 64.095006 113.408882 58.001003 C 118.659262 51.907 125.345373 48.857379 133.472457 48.857379 C 138.282685 48.857379 142.065892 49.701003 144.811599 51.38825 Z M 152.252256 81.533391 C 152.252256 72.562683 154.877446 64.875751 160.127825 58.467354 C 165.378204 52.064197 172.048596 48.857379 180.144241 48.857379 C 186.238244 48.857379 190.891274 50.507947 194.113812 53.803844 C 197.331111 57.09974 198.93976 61.778971 198.93976 67.841534 C 198.93976 72.657002 197.980858 77.655866 196.057815 82.843366 C 194.134772 88.030866 190.996072 92.343304 186.636476 95.780678 C 182.27688 99.218052 177.04746 100.936739 170.953457 100.936739 C 164.922333 100.936739 160.300742 99.244251 157.078204 95.854036 C 153.860905 92.458581 152.252256 87.685033 152.252256 81.533391 Z M 161.626436 80.967482 C 161.626436 89.435159 165.173848 93.674238 172.268672 93.674238 C 177.55049 93.674238 181.74241 91.111927 184.85491 85.982066 C 187.962171 80.857444 189.518421 74.936358 189.518421 68.218807 C 189.518421 60.154602 185.971009 56.125119 178.876185 56.125119 C 175.281614 56.125119 172.116715 57.403655 169.386727 59.971205 C 166.6515 62.533516 164.676058 65.813693 163.455161 69.811736 C 162.234265 73.815019 161.626436 77.530108 161.626436 80.967482 Z M 242.844876 58.608831 C 240.968992 57.11022 238.783954 56.360915 236.284522 56.360915 C 233.130103 56.360915 230.111921 57.822847 227.235216 60.741471 C 224.363751 63.665334 222.566466 67.155107 221.8486 71.221269 L 216.734458 99.998797 L 207.831869 99.998797 L 216.692539 49.795321 L 225.595128 49.795321 L 224.190835 57.812367 C 228.503272 51.844121 233.863689 48.857379 240.266846 48.857379 C 241.361985 48.857379 243.064952 49.077455 245.375748 49.517606 Z M 267.907315 30.109019 C 269.626002 30.109019 271.098414 30.711607 272.31407 31.911544 C 273.534967 33.116721 274.142795 34.594373 274.142795 36.344499 C 274.142795 38.063186 273.534967 39.525118 272.31407 40.725055 C 271.098414 41.930232 269.626002 42.53282 267.907315 42.53282 C 266.188628 42.53282 264.721456 41.930232 263.50056 40.725055 C 262.284903 39.525118 261.677075 38.063186 261.677075 36.344499 C 261.677075 34.594373 262.284903 33.116721 263.50056 31.911544 C 264.721456 30.711607 266.188628 30.109019 267.907315 30.109019 Z M 253.518551 99.998797 L 261.111166 57.298857 L 254.456493 57.298857 L 256.096582 49.936798 L 271.423288 49.936798 L 262.567858 99.998797 Z M 323.34545 51.38825 L 321.705362 59.033263 C 319.457445 57.251698 316.439263 56.360915 312.661295 56.360915 C 306.907886 56.360915 302.260095 58.635031 298.712683 63.178024 C 295.165272 67.726256 293.394186 73.311989 293.394186 79.935222 C 293.394186 84.001384 294.541723 87.239642 296.842039 89.665715 C 299.137115 92.086549 301.751825 93.296965 304.691409 93.296965 C 309.223922 93.296965 313.567798 91.908392 317.723038 89.126005 L 316.737937 98.217231 C 312.645576 100.030236 308.160222 100.936739 303.287116 100.936739 C 297.098794 100.936739 292.346206 99.165653 289.034589 95.618241 C 285.722973 92.070829 284.067165 87.360159 284.067165 81.486232 C 284.067165 71.923416 286.692354 64.095006 291.942733 58.001003 C 297.193113 51.907 303.879224 48.857379 312.006308 48.857379 C 316.816536 48.857379 320.599743 49.701003 323.34545 51.38825 Z M 323.34545 51.38825 " stroke="#000000" stroke-width="3.6" stroke-opacity="1" stroke-miterlimit="4"/></g><g fill="#2fa5f4" fill-opacity="1"><g transform="translate(2.592452, 60.250897)"><g><path d="M 36.765625 -35.078125 L 32.1875 -13.3125 C 32 -12.425781 31.90625 -11.351562 31.90625 -10.09375 C 31.90625 -6.457031 32.472656 -3.09375 33.609375 0 L 26.84375 0 C 26.46875 -0.75 26.066406 -2.007812 25.640625 -3.78125 C 24.546875 -2.445312 22.914062 -1.363281 20.75 -0.53125 C 18.582031 0.289062 16.289062 0.703125 13.875 0.703125 C 10.1875 0.703125 7.3125 -0.382812 5.25 -2.5625 C 3.195312 -4.738281 2.171875 -7.867188 2.171875 -11.953125 C 2.171875 -18.796875 4.191406 -24.867188 8.234375 -30.171875 C 12.273438 -35.472656 17.472656 -38.125 23.828125 -38.125 C 29.835938 -38.125 34.148438 -37.109375 36.765625 -35.078125 Z M 29.421875 -31.203125 C 28.796875 -32.203125 26.675781 -32.703125 23.0625 -32.703125 C 19.382812 -32.703125 16.144531 -30.742188 13.34375 -26.828125 C 10.550781 -22.921875 9.15625 -18.03125 9.15625 -12.15625 C 9.15625 -7.195312 11.367188 -4.71875 15.796875 -4.71875 C 18.097656 -4.71875 20.257812 -5.910156 22.28125 -8.296875 C 24.3125 -10.679688 25.722656 -13.738281 26.515625 -17.46875 Z M 29.421875 -31.203125 "/></g></g></g><g fill="#2fa5f4" fill-opacity="1"><g transform="translate(42.697514, 60.250897)"><g><path d="M 32.421875 -36.234375 L 31.203125 -30.546875 C 29.523438 -31.867188 27.273438 -32.53125 24.453125 -32.53125 C 20.171875 -32.53125 16.707031 -30.832031 14.0625 -27.4375 C 11.414062 -24.050781 10.09375 -19.890625 10.09375 -14.953125 C 10.09375 -11.921875 10.945312 -9.503906 12.65625 -7.703125 C 14.375 -5.898438 16.328125 -5 18.515625 -5 C 21.898438 -5 25.140625 -6.035156 28.234375 -8.109375 L 27.5 -1.328125 C 24.445312 0.0234375 21.101562 0.703125 17.46875 0.703125 C 12.851562 0.703125 9.3125 -0.617188 6.84375 -3.265625 C 4.375 -5.910156 3.140625 -9.421875 3.140625 -13.796875 C 3.140625 -20.929688 5.097656 -26.769531 9.015625 -31.3125 C 12.929688 -35.851562 17.914062 -38.125 23.96875 -38.125 C 27.5625 -38.125 30.378906 -37.492188 32.421875 -36.234375 Z M 32.421875 -36.234375 "/></g></g></g><g fill="#2fa5f4" fill-opacity="1"><g transform="translate(78.120018, 60.250897)"><g><path d="M 32.421875 -36.234375 L 31.203125 -30.546875 C 29.523438 -31.867188 27.273438 -32.53125 24.453125 -32.53125 C 20.171875 -32.53125 16.707031 -30.832031 14.0625 -27.4375 C 11.414062 -24.050781 10.09375 -19.890625 10.09375 -14.953125 C 10.09375 -11.921875 10.945312 -9.503906 12.65625 -7.703125 C 14.375 -5.898438 16.328125 -5 18.515625 -5 C 21.898438 -5 25.140625 -6.035156 28.234375 -8.109375 L 27.5 -1.328125 C 24.445312 0.0234375 21.101562 0.703125 17.46875 0.703125 C 12.851562 0.703125 9.3125 -0.617188 6.84375 -3.265625 C 4.375 -5.910156 3.140625 -9.421875 3.140625 -13.796875 C 3.140625 -20.929688 5.097656 -26.769531 9.015625 -31.3125 C 12.929688 -35.851562 17.914062 -38.125 23.96875 -38.125 C 27.5625 -38.125 30.378906 -37.492188 32.421875 -36.234375 Z M 32.421875 -36.234375 "/></g></g></g><g fill="#2fa5f4" fill-opacity="1"><g transform="translate(113.542522, 60.250897)"><g><path d="M 2.546875 -13.765625 C 2.546875 -20.453125 4.503906 -26.179688 8.421875 -30.953125 C 12.335938 -35.734375 17.3125 -38.125 23.34375 -38.125 C 27.882812 -38.125 31.351562 -36.894531 33.75 -34.4375 C 36.15625 -31.976562 37.359375 -28.488281 37.359375 -23.96875 C 37.359375 -20.382812 36.640625 -16.65625 35.203125 -12.78125 C 33.773438 -8.914062 31.4375 -5.703125 28.1875 -3.140625 C 24.9375 -0.578125 21.039062 0.703125 16.5 0.703125 C 12 0.703125 8.546875 -0.5625 6.140625 -3.09375 C 3.742188 -5.625 2.546875 -9.179688 2.546875 -13.765625 Z M 9.546875 -14.1875 C 9.546875 -7.875 12.1875 -4.71875 17.46875 -4.71875 C 21.40625 -4.71875 24.53125 -6.625 26.84375 -10.4375 C 29.164062 -14.257812 30.328125 -18.675781 30.328125 -23.6875 C 30.328125 -29.695312 27.679688 -32.703125 22.390625 -32.703125 C 19.710938 -32.703125 17.351562 -31.742188 15.3125 -29.828125 C 13.28125 -27.921875 11.8125 -25.476562 10.90625 -22.5 C 10 -19.519531 9.546875 -16.75 9.546875 -14.1875 Z M 9.546875 -14.1875 "/></g></g></g><g fill="#2fa5f4" fill-opacity="1"><g transform="translate(154.451307, 60.250897)"><g><path d="M 29.171875 -30.859375 C 27.773438 -31.972656 26.144531 -32.53125 24.28125 -32.53125 C 21.925781 -32.53125 19.675781 -31.441406 17.53125 -29.265625 C 15.394531 -27.085938 14.054688 -24.484375 13.515625 -21.453125 L 9.71875 0 L 3.078125 0 L 9.671875 -37.421875 L 16.3125 -37.421875 L 15.265625 -31.453125 C 18.484375 -35.898438 22.476562 -38.125 27.25 -38.125 C 28.070312 -38.125 29.34375 -37.960938 31.0625 -37.640625 Z M 29.171875 -30.859375 "/></g></g></g><g fill="#2fa5f4" fill-opacity="1"><g transform="translate(186.763753, 60.250897)"><g><path d="M 15.546875 -52.09375 C 16.828125 -52.09375 17.921875 -51.644531 18.828125 -50.75 C 19.742188 -49.851562 20.203125 -48.753906 20.203125 -47.453125 C 20.203125 -46.171875 19.742188 -45.082031 18.828125 -44.1875 C 17.921875 -43.289062 16.828125 -42.84375 15.546875 -42.84375 C 14.265625 -42.84375 13.171875 -43.289062 12.265625 -44.1875 C 11.359375 -45.082031 10.90625 -46.171875 10.90625 -47.453125 C 10.90625 -48.753906 11.359375 -49.851562 12.265625 -50.75 C 13.171875 -51.644531 14.265625 -52.09375 15.546875 -52.09375 Z M 4.828125 0 L 10.484375 -31.828125 L 5.515625 -31.828125 L 6.75 -37.3125 L 18.171875 -37.3125 L 11.5625 0 Z M 4.828125 0 "/></g></g></g><g fill="#2fa5f4" fill-opacity="1"><g transform="translate(211.213696, 60.250897)"><g><path d="M 32.421875 -36.234375 L 31.203125 -30.546875 C 29.523438 -31.867188 27.273438 -32.53125 24.453125 -32.53125 C 20.171875 -32.53125 16.707031 -30.832031 14.0625 -27.4375 C 11.414062 -24.050781 10.09375 -19.890625 10.09375 -14.953125 C 10.09375 -11.921875 10.945312 -9.503906 12.65625 -7.703125 C 14.375 -5.898438 16.328125 -5 18.515625 -5 C 21.898438 -5 25.140625 -6.035156 28.234375 -8.109375 L 27.5 -1.328125 C 24.445312 0.0234375 21.101562 0.703125 17.46875 0.703125 C 12.851562 0.703125 9.3125 -0.617188 6.84375 -3.265625 C 4.375 -5.910156 3.140625 -9.421875 3.140625 -13.796875 C 3.140625 -20.929688 5.097656 -26.769531 9.015625 -31.3125 C 12.929688 -35.851562 17.914062 -38.125 23.96875 -38.125 C 27.5625 -38.125 30.378906 -37.492188 32.421875 -36.234375 Z M 32.421875 -36.234375 "/></g></g></g><g clip-path="url(#a096ec2940)"><g clip-path="url(#d80f90346e)"><path fill="#efefef" d="M 271.738281 14.945312 L 293.179688 36.382812 L 272.464844 57.09375 L 251.027344 35.65625 Z M 271.738281 14.945312 " fill-opacity="1" fill-rule="nonzero"/></g></g><g clip-path="url(#5900e74051)"><g clip-path="url(#9c0d85b885)"><g clip-path="url(#258bcfe005)"><path stroke-linecap="butt" transform="matrix(0.563097, 0.563097, -0.563097, 0.563097, 271.74282, 14.947788)" fill="none" stroke-linejoin="miter" d="M 0.000708963 0.00183182 L 38.002034 0.00183182 L 37.998565 36.764888 L 0.000708963 36.768356 Z M 0.000708963 0.00183182 " stroke="#000000" stroke-width="7.489086" stroke-opacity="1" stroke-miterlimit="4"/></g></g></g><g clip-path="url(#053e7fdbfc)"><g clip-path="url(#69eddf00ba)"><path fill="#d69e00" d="M 275.917969 15.042969 L 281.828125 9.128906 L 287.539062 14.839844 L 281.628906 20.753906 Z M 275.917969 15.042969 " fill-opacity="1" fill-rule="nonzero"/></g></g><g clip-path="url(#0bb4f61b83)"><g clip-path="url(#f7cb3cd33d)"><path fill="#d69e00" d="M 285.472656 25.394531 L 291.386719 19.480469 L 297.097656 25.191406 L 291.183594 31.105469 Z M 285.472656 25.394531 " fill-opacity="1" fill-rule="nonzero"/></g></g><g clip-path="url(#91b5aacd98)"><g clip-path="url(#cf84f15c97)"><path fill="#d69e00" d="M 276.714844 56.453125 L 282.539062 50.628906 L 288.246094 56.339844 L 282.425781 62.164062 Z M 276.714844 56.453125 " fill-opacity="1" fill-rule="nonzero"/></g></g><g clip-path="url(#7c1abd7937)"><g clip-path="url(#fc2171e5e4)"><path fill="#d69e00" d="M 286.78125 46.375 L 292.535156 40.617188 L 298.246094 46.328125 L 292.492188 52.085938 Z M 286.78125 46.375 " fill-opacity="1" fill-rule="nonzero"/></g></g><g clip-path="url(#afa84c917b)"><path fill="#000000" d="M 306.242188 72.253906 L 306.242188 68.539062 L 304.953125 68.539062 L 304.953125 67.785156 L 308.402344 67.785156 L 308.402344 68.539062 L 307.117188 68.539062 L 307.117188 72.253906 Z M 306.242188 72.253906 " fill-opacity="1" fill-rule="nonzero"/></g><g clip-path="url(#07f9bf5ecc)"><path fill="#000000" d="M 308.957031 72.253906 L 308.957031 67.785156 L 310.269531 67.785156 L 311.058594 70.835938 L 311.835938 67.785156 L 313.152344 67.785156 L 313.152344 72.253906 L 312.339844 72.253906 L 312.339844 68.734375 L 311.476562 72.253906 L 310.632812 72.253906 L 309.773438 68.734375 L 309.773438 72.253906 Z M 308.957031 72.253906 " fill-opacity="1" fill-rule="nonzero"/></g></svg>