<svg xmlns="http://www.w3.org/2000/svg" xmlns:xlink="http://www.w3.org/1999/xlink" width="120" zoomAndPan="magnify" viewBox="0 0 90 89.999999" height="120" preserveAspectRatio="xMidYMid meet" version="1.0"><defs><clipPath id="6235068953"><path d="M 7 12 L 75 12 L 75 79 L 7 79 Z M 7 12 " clip-rule="nonzero"/></clipPath><clipPath id="d196ddd007"><path d="M 40.421875 12.273438 L 74.257812 46.109375 L 41.519531 78.847656 L 7.683594 45.011719 Z M 40.421875 12.273438 " clip-rule="nonzero"/></clipPath><clipPath id="41d6d08179"><path d="M 7 12 L 75 12 L 75 79 L 7 79 Z M 7 12 " clip-rule="nonzero"/></clipPath><clipPath id="4479fa34e6"><path d="M 40.421875 12.273438 L 74.363281 46.214844 L 41.480469 79.09375 L 7.539062 45.152344 Z M 40.421875 12.273438 " clip-rule="nonzero"/></clipPath><clipPath id="172cd45d21"><path d="M 40.421875 12.273438 L 74.253906 46.105469 L 41.523438 78.835938 L 7.691406 45.003906 Z M 40.421875 12.273438 " clip-rule="nonzero"/></clipPath><clipPath id="efa4c55d1a"><path d="M 47 3 L 66 3 L 66 22 L 47 22 Z M 47 3 " clip-rule="nonzero"/></clipPath><clipPath id="59cb760354"><path d="M 47.027344 12.429688 L 56.367188 3.085938 L 65.394531 12.113281 L 56.054688 21.453125 Z M 47.027344 12.429688 " clip-rule="nonzero"/></clipPath><clipPath id="214b1e85cf"><path d="M 62 19 L 81 19 L 81 38 L 62 38 Z M 62 19 " clip-rule="nonzero"/></clipPath><clipPath id="f4105dedcf"><path d="M 62.132812 28.792969 L 71.472656 19.449219 L 80.5 28.476562 L 71.160156 37.820312 Z M 62.132812 28.792969 " clip-rule="nonzero"/></clipPath><clipPath id="754c5b228a"><path d="M 48 68 L 67 68 L 67 87 L 48 87 Z M 48 68 " clip-rule="nonzero"/></clipPath><clipPath id="baccd1835e"><path d="M 48.285156 77.882812 L 57.5 68.667969 L 66.527344 77.695312 L 57.3125 86.910156 Z M 48.285156 77.882812 " clip-rule="nonzero"/></clipPath><clipPath id="e138b01d60"><path d="M 64 52 L 83 52 L 83 71 L 64 71 Z M 64 52 " clip-rule="nonzero"/></clipPath><clipPath id="d798e5087a"><path d="M 64.195312 61.953125 L 73.285156 52.863281 L 82.3125 61.886719 L 73.222656 70.976562 Z M 64.195312 61.953125 " clip-rule="nonzero"/></clipPath></defs><g clip-path="url(#6235068953)"><g clip-path="url(#d196ddd007)"><path fill="#efefef" d="M 40.421875 12.273438 L 74.308594 46.160156 L 41.570312 78.898438 L 7.683594 45.011719 Z M 40.421875 12.273438 " fill-opacity="1" fill-rule="nonzero"/></g></g><g clip-path="url(#41d6d08179)"><g clip-path="url(#4479fa34e6)"><g clip-path="url(#172cd45d21)"><path stroke-linecap="butt" transform="matrix(0.53033, 0.53033, -0.53033, 0.53033, 40.422032, 12.274477)" fill="none" stroke-linejoin="miter" d="M -0.00112837 -0.000832393 L 63.793165 -0.000832393 L 63.793165 61.716334 L -0.00112837 61.716334 Z M -0.00112837 -0.000832393 " stroke="#000000" stroke-width="10" stroke-opacity="1" stroke-miterlimit="4"/></g></g></g><g clip-path="url(#efa4c55d1a)"><g clip-path="url(#59cb760354)"><path fill="#d69e00" d="M 47.027344 12.429688 L 56.371094 3.082031 L 65.398438 12.109375 L 56.054688 21.453125 Z M 47.027344 12.429688 " fill-opacity="1" fill-rule="nonzero"/></g></g><g clip-path="url(#214b1e85cf)"><g clip-path="url(#f4105dedcf)"><path fill="#d69e00" d="M 62.132812 28.792969 L 71.476562 19.449219 L 80.503906 28.472656 L 71.160156 37.820312 Z M 62.132812 28.792969 " fill-opacity="1" fill-rule="nonzero"/></g></g><g clip-path="url(#754c5b228a)"><g clip-path="url(#baccd1835e)"><path fill="#d69e00" d="M 48.285156 77.882812 L 57.488281 68.679688 L 66.515625 77.707031 L 57.3125 86.910156 Z M 48.285156 77.882812 " fill-opacity="1" fill-rule="nonzero"/></g></g><g clip-path="url(#e138b01d60)"><g clip-path="url(#d798e5087a)"><path fill="#d69e00" d="M 64.195312 61.953125 L 73.292969 52.855469 L 82.320312 61.878906 L 73.222656 70.976562 Z M 64.195312 61.953125 " fill-opacity="1" fill-rule="nonzero"/></g></g></svg>